<svg width="140" height="135" viewBox="0 0 140 135" fill="none" xmlns="http://www.w3.org/2000/svg">
<mask id="path-1-inside-1" fill="white">
<path fill-rule="evenodd" clip-rule="evenodd" d="M42.8708 134.549C17.684 123.95 0 99.0403 0 70C0 31.3401 31.3401 0 70 0C108.66 0 140 31.3401 140 70C140 99.2957 122.004 124.388 96.4629 134.825L78.2581 88.2208C85.1836 85.0771 90 78.101 90 70C90 58.9543 81.0457 50 70 50C58.9543 50 50 58.9543 50 70C50 78.0844 54.7967 85.0485 61.6994 88.2015L42.8708 134.549Z"/>
</mask>
<path fill-rule="evenodd" clip-rule="evenodd" d="M42.8708 134.549C17.684 123.95 0 99.0403 0 70C0 31.3401 31.3401 0 70 0C108.66 0 140 31.3401 140 70C140 99.2957 122.004 124.388 96.4629 134.825L78.2581 88.2208C85.1836 85.0771 90 78.101 90 70C90 58.9543 81.0457 50 70 50C58.9543 50 50 58.9543 50 70C50 78.0844 54.7967 85.0485 61.6994 88.2015L42.8708 134.549Z" fill="#4CAF50"/>
<path d="M42.8708 134.549L40.9315 139.157L45.5977 141.121L47.5031 136.431L42.8708 134.549ZM96.4629 134.825L91.8056 136.644L93.6534 141.375L98.3543 139.454L96.4629 134.825ZM78.2581 88.2208L76.1914 83.668L71.8768 85.6266L73.6009 90.0401L78.2581 88.2208ZM61.6994 88.2015L66.3317 90.0834L68.1351 85.6443L63.7768 83.6535L61.6994 88.2015ZM-5 70C-5 101.122 13.9555 127.806 40.9315 139.157L44.8101 129.94C21.4125 120.095 5 96.9582 5 70H-5ZM70 -5C28.5786 -5 -5 28.5786 -5 70H5C5 34.1015 34.1015 5 70 5V-5ZM145 70C145 28.5786 111.421 -5 70 -5V5C105.899 5 135 34.1015 135 70H145ZM98.3543 139.454C125.71 128.275 145 101.396 145 70H135C135 97.1953 118.297 120.501 94.5715 130.197L98.3543 139.454ZM73.6009 90.0401L91.8056 136.644L101.12 133.006L82.9154 86.4016L73.6009 90.0401ZM80.3249 92.7737C88.9707 88.849 95 80.1339 95 70H85C85 76.0681 81.3965 81.3051 76.1914 83.668L80.3249 92.7737ZM95 70C95 56.1929 83.8071 45 70 45V55C78.2843 55 85 61.7157 85 70H95ZM70 45C56.1929 45 45 56.1929 45 70H55C55 61.7157 61.7157 55 70 55V45ZM45 70C45 80.1132 51.0047 88.8133 59.622 92.7495L63.7768 83.6535C58.5887 81.2837 55 76.0557 55 70H45ZM47.5031 136.431L66.3317 90.0834L57.0671 86.3196L38.2385 132.667L47.5031 136.431Z" fill="black" mask="url(#path-1-inside-1)"/>
</svg>
